<svg width="774" height="269" viewBox="0 0 774 269" fill="none" xmlns="http://www.w3.org/2000/svg">
<path d="M0 0H774V194.47V257.574V257.574C760.884 252.711 749.759 243.622 742.378 231.738L736.059 221.563L717.098 194.086C695.598 162.928 648.614 166.037 631.408 199.757L625.544 211.248C596.028 269.093 520.065 283.899 470.986 241.373L416.341 194.024C389.229 170.533 351.612 163.363 317.76 175.236L240.029 202.498C191.284 219.594 137.541 196.751 116.022 149.791L91.2875 95.8108C74.8005 59.8306 48.009 29.551 14.3046 8.80489L0 0Z" fill="url(#paint0_linear_2_20)"/>
<path d="M224.904 112.216V106.024H249.576V112.216H224.904ZM245.208 93.4H252.072V127H245.208V93.4ZM222.648 93.4H229.512V127H222.648V93.4ZM263.72 127V121.192H280.664V127H263.72ZM263.72 99.208V93.4H280.664V99.208H263.72ZM263.72 112.024V106.312H279.704V112.024H263.72ZM259.304 93.4H265.928V127H259.304V93.4ZM306.101 93.4H313.925L302.357 113.08V127H295.397V113.128L283.829 93.4H291.653L298.853 106.936L306.101 93.4ZM315.38 121.72L321.572 123.256L315.764 135.256L311.156 134.152L315.38 121.72ZM356.945 93.4H363.905V127H356.945V93.4ZM372.588 93.4H379.212L374.268 105.256H369.9L372.588 93.4ZM393.634 108.136L391.474 127H384.322L389.314 91.72L403.378 113.416L417.442 91.72L422.434 127H415.282L413.122 108.136L403.378 123.88L393.634 108.136ZM473.92 115.72C474.624 116.968 475.392 118.056 476.224 118.984C477.088 119.912 478.032 120.632 479.056 121.144C480.08 121.656 481.184 121.912 482.368 121.912C483.744 121.912 484.864 121.56 485.728 120.856C486.592 120.152 487.024 119.192 487.024 117.976C487.024 116.92 486.752 116.072 486.208 115.432C485.696 114.792 484.912 114.232 483.856 113.752C482.832 113.24 481.568 112.696 480.064 112.12C479.264 111.832 478.336 111.448 477.28 110.968C476.256 110.456 475.28 109.816 474.352 109.048C473.424 108.248 472.656 107.288 472.048 106.168C471.44 105.016 471.136 103.64 471.136 102.04C471.136 100.12 471.616 98.472 472.576 97.096C473.568 95.688 474.896 94.616 476.56 93.88C478.256 93.112 480.144 92.728 482.224 92.728C484.368 92.728 486.208 93.096 487.744 93.832C489.312 94.536 490.608 95.448 491.632 96.568C492.688 97.656 493.504 98.792 494.08 99.976L488.704 102.952C488.256 102.152 487.712 101.432 487.072 100.792C486.464 100.12 485.76 99.592 484.96 99.208C484.16 98.792 483.248 98.584 482.224 98.584C480.88 98.584 479.872 98.904 479.2 99.544C478.528 100.152 478.192 100.872 478.192 101.704C478.192 102.536 478.464 103.272 479.008 103.912C479.552 104.52 480.384 105.112 481.504 105.688C482.624 106.232 484.032 106.792 485.728 107.368C486.816 107.752 487.856 108.232 488.848 108.808C489.872 109.384 490.784 110.088 491.584 110.92C492.416 111.72 493.056 112.68 493.504 113.8C493.984 114.888 494.224 116.152 494.224 117.592C494.224 119.224 493.904 120.68 493.264 121.96C492.624 123.24 491.744 124.328 490.624 125.224C489.504 126.088 488.24 126.744 486.832 127.192C485.456 127.672 484 127.912 482.464 127.912C480.416 127.912 478.496 127.528 476.704 126.76C474.944 125.96 473.408 124.888 472.096 123.544C470.784 122.2 469.76 120.744 469.024 119.176L473.92 115.72ZM505.148 110.2C505.148 112.344 505.596 114.248 506.492 115.912C507.388 117.576 508.62 118.888 510.188 119.848C511.756 120.808 513.58 121.288 515.66 121.288C517.74 121.288 519.564 120.808 521.132 119.848C522.7 118.888 523.916 117.576 524.78 115.912C525.676 114.248 526.124 112.344 526.124 110.2C526.124 108.056 525.692 106.152 524.828 104.488C523.964 102.824 522.748 101.512 521.18 100.552C519.612 99.592 517.772 99.112 515.66 99.112C513.58 99.112 511.756 99.592 510.188 100.552C508.62 101.512 507.388 102.824 506.492 104.488C505.596 106.152 505.148 108.056 505.148 110.2ZM497.9 110.2C497.9 107.64 498.348 105.304 499.244 103.192C500.14 101.048 501.388 99.192 502.988 97.624C504.588 96.056 506.46 94.856 508.604 94.024C510.78 93.16 513.132 92.728 515.66 92.728C518.22 92.728 520.572 93.16 522.716 94.024C524.86 94.856 526.732 96.056 528.332 97.624C529.964 99.192 531.212 101.048 532.076 103.192C532.972 105.304 533.42 107.64 533.42 110.2C533.42 112.728 532.972 115.08 532.076 117.256C531.212 119.4 529.98 121.272 528.38 122.872C526.812 124.472 524.94 125.72 522.764 126.616C520.62 127.48 518.252 127.912 515.66 127.912C513.068 127.912 510.684 127.48 508.508 126.616C506.364 125.72 504.492 124.472 502.892 122.872C501.292 121.272 500.06 119.4 499.196 117.256C498.332 115.08 497.9 112.728 497.9 110.2ZM540.982 112.216V106.024H565.654V112.216H540.982ZM561.286 93.4H568.15V127H561.286V93.4ZM538.726 93.4H545.59V127H538.726V93.4ZM580.038 119.368L580.854 113.944H596.982L597.798 119.368H580.038ZM588.822 104.296L583.782 115.864L583.926 117.4L579.51 127H571.782L588.822 91.432L605.862 127H598.086L593.766 117.688L593.862 115.96L588.822 104.296ZM616.899 108.136L614.739 127H607.587L612.579 91.72L626.643 113.416L640.707 91.72L645.699 127H638.547L636.387 108.136L626.643 123.88L616.899 108.136Z" fill="white"/>
<defs>
<linearGradient id="paint0_linear_2_20" x1="177.528" y1="50.4905" x2="735.57" y2="44.9708" gradientUnits="userSpaceOnUse">
<stop stop-color="#478AFB"/>
<stop offset="1" stop-color="#997EF7"/>
</linearGradient>
</defs>
</svg>
